<svg width="38" height="38" fill="#3d3d3d" xmlns="http://www.w3.org/2000/svg"><path d="M26.355 12.258H11.032L18.694 19l7.66-6.742z"/><path d="M18.694 20.273a.683.683 0 01-.445-.165L9.806 12.87v12.871h17.775v-12.87l-8.443 7.236a.683.683 0 01-.445.165z"/><path fill-rule="evenodd" clip-rule="evenodd" d="M0 19C0 8.507 8.507 0 19 0c10.488.012 18.988 8.512 19 19 0 10.493-8.507 19-19 19S0 29.493 0 19zm28.5 8.143a.679.679 0 00.679-.679V11.536a.679.679 0 00-.679-.679h-19a.679.679 0 00-.679.679v14.928c0 .375.304.679.679.679h19z"/></svg>