<svg width="38" height="38" fill="#3d3d3d" xmlns="http://www.w3.org/2000/svg"><path fill-rule="evenodd" clip-rule="evenodd" d="M5.563 5.567c7.419-7.421 19.449-7.423 26.87-.004a19 19 0 01.004 26.87c-7.419 7.421-19.449 7.423-26.87.004-7.421-7.419-7.423-19.449-.004-26.87zm23.21 20.902l.002-.002a.804.804 0 00-.003-1.138l-3.565-3.572-.003-.002a.804.804 0 00-1.137.002l-2.02 2.052a1.716 1.716 0 01-2.192.19 24.304 24.304 0 01-3.293-2.767 24.46 24.46 0 01-2.502-2.92 1.704 1.704 0 01.177-2.217l2.09-2.09.003-.002a.804.804 0 00-.003-1.138l-3.56-3.559-.002-.003a.804.804 0 00-1.137.003L10.5 10.433a5.067 5.067 0 00-1.267 5.175A17.732 17.732 0 0011.4 19.99a22.773 22.773 0 002.882 3.496 22.596 22.596 0 003.857 3.11 16.839 16.839 0 004.889 2.191 5.067 5.067 0 004.782-1.368l.962-.956v.006z"/></svg>